<?xml version="1.0" encoding="utf-8"?>
<!-- Generator: Adobe Illustrator 15.1.0, SVG Export Plug-In . SVG Version: 6.00 Build 0)  -->
<!DOCTYPE svg PUBLIC "-//W3C//DTD SVG 1.1//EN" "http://www.w3.org/Graphics/SVG/1.1/DTD/svg11.dtd">
<svg version="1.1" id="Layer_1" xmlns="http://www.w3.org/2000/svg" xmlns:xlink="http://www.w3.org/1999/xlink" x="0px" y="0px"
	 width="800px" height="600px" viewBox="0 0 800 600" enable-background="new 0 0 800 600" xml:space="preserve">
<g>
	<path fill-rule="evenodd" clip-rule="evenodd" d="M442,230c-10.182,4.086-31.685,4.329-43,1
		C410.522,228.465,429.322,228.066,442,230z"/>
	<path fill-rule="evenodd" clip-rule="evenodd" d="M408,238c9.012-2.667,21.44-0.116,31,0C433.202,243.321,413.331,243.881,408,238z
		"/>
	<path fill-rule="evenodd" clip-rule="evenodd" d="M386,241c20.569,2.114,45.895,5.003,69,6C435.655,257.22,407.206,244.301,386,241
		z"/>
	<path fill-rule="evenodd" clip-rule="evenodd" d="M377,249c-21.039,5.627-43.741,9.593-65,15c9.218-8.116,20.147-14.519,30-22
		C353.078,244.922,365.441,246.559,377,249z"/>
	<path fill-rule="evenodd" clip-rule="evenodd" d="M394,260c4.119,16.214,2.453,38.214,3,58
		C392.931,301.735,395.943,278.391,394,260z"/>
	<path fill-rule="evenodd" clip-rule="evenodd" d="M410,265c3.059-0.725,2.941,1.725,6,1c-0.132,8.465,1.039,15.628,2,23
		c-2.386-1.614-6.406-1.594-9-3C408.81,278.476,410.749,273.083,410,265z"/>
	<path fill-rule="evenodd" clip-rule="evenodd" d="M421,269c1.794-0.127,2.109,1.224,4,1c1.425,5.908,1.64,13.027,2,20
		c-3.059,0.725-2.941-1.725-6-1C421,282.333,421,275.667,421,269z"/>
	<path fill-rule="evenodd" clip-rule="evenodd" d="M435,274c0.224,6.776,1.409,12.591,2,19c-3.897,0.23-5.185-2.148-8-3
		c-0.29-6.043,0.801-13.468-1-18C430.123,269.996,432.456,273.42,435,274z"/>
	<path fill-rule="evenodd" clip-rule="evenodd" d="M410,288c1.892,1.108,4.725,1.276,7,2c1.27,7.73,0.104,17.896,2,25
		c-1.978,2.871-6.241-0.347-9,0C410.373,305.642,407.421,296.498,410,288z"/>
	<path fill-rule="evenodd" clip-rule="evenodd" d="M421,291c2.275,0.724,5.108,0.892,7,2c-0.739,9.072,1.15,15.517,1,24
		c-2,0-4,0-6,0C420.73,309.329,422.942,296.254,421,291z"/>
	<path fill-rule="evenodd" clip-rule="evenodd" d="M430,293c3.156-0.489,3.531,1.802,7,1c-0.473,8.297,0.689,19.762,0,25
		C426.026,318.974,432.107,301.893,430,293z"/>
	<path fill-rule="evenodd" clip-rule="evenodd" d="M518,303c-0.115,11.182-0.058,13.02,1,25c-3.333,0-6.667,0-10,0c0-4,0-8,0-12
		c2.611-0.389,5.486-0.514,7-2c-0.844-2.354-5.156,0.062-6,1c-2.922-1.078,0.922-8.922-2-10
		C510.483,303.483,514.069,303.069,518,303z"/>
	<path fill-rule="evenodd" clip-rule="evenodd" d="M410,317c3.22-0.22,4.231,1.769,8,1c0.858,8.808,1.519,17.814,2,27
		c-4.29-0.94-6.607,3.099-9,1C411.775,335.225,409.638,327.362,410,317z"/>
	<path fill-rule="evenodd" clip-rule="evenodd" d="M336,319c5.486-0.152,10.774-0.107,15,1c-0.158,8.491-0.097,16.763,1,24
		c2.208-0.125,0.425-4.242,1-6c3.11,0.223,1.689,4.977,2,8c-6.333,0-12.667,0-19,0C336.55,335.719,335.95,330.126,336,319z M343,335
		c-1.314-0.132-7.235-0.151-4,1c1.496,0.17,3.69-0.357,4,1c0.224,0.776,0.027,1.973,1,2c-2.895-4.989,7.395-1.811,4-4
		c-7.444,1.777-1.717-9.617-5-12C343,327,343,331,343,335z"/>
	<path fill-rule="evenodd" clip-rule="evenodd" d="M423,319c3.056-0.723,3.645,1.022,6,1c-1.261,6.87,2.263,13.357,0,18
		c-2.236-0.431-0.405-4.929-1-7c-2.035,0.965-2.16,3.84-2,7C423.203,333.464,423.387,325.947,423,319z"/>
	<path fill-rule="evenodd" clip-rule="evenodd" d="M432,320c3.059-0.726,2.941,1.726,6,1c-0.532,7.532,1.771,12.229,1,20
		c-3.708-0.708-4.292,1.708-8,1C433.188,336.521,431.44,327.106,432,320z"/>
	<path fill-rule="evenodd" clip-rule="evenodd" d="M289,321c4.101-1.168,4.018,6.953,1,7C285.899,329.168,285.982,321.047,289,321z"
		/>
	<path fill-rule="evenodd" clip-rule="evenodd" d="M290,329c2.38,2.123,0.556,8.498-3,8c0-2.333,0-4.667,0-7
		C288.419,330.086,289.832,330.165,290,329z"/>
	<path fill-rule="evenodd" clip-rule="evenodd" d="M343,349c-0.659,5.675-5.102,7.564-6,13c-10.667,0.667-18.066-1.934-28-2
		C313.229,347.271,328.292,347.266,343,349z M319,351c-0.137,1.518,14.85,1.769,18,0C331.916,350.475,323.707,348.673,319,351z
		 M335,355c-5.024-1.833-14.525-3.318-19,0C322.333,355,328.667,355,335,355z M317,359c5.349-0.651,13.313,1.313,17-1
		c-7.117,1.097-14.207-3.099-20,0C315.177,358.156,316.838,357.828,317,359z"/>
	<path fill-rule="evenodd" clip-rule="evenodd" d="M350,376c11.229-0.889,26.429,2.899,40,3
		C377.775,383.062,359.509,380.744,350,376z"/>
	<path fill-rule="evenodd" clip-rule="evenodd" d="M258,158c94,0,187.999,0,282,0c-0.666,94.333,1.332,191.333-1,284
		c-93.666-0.666-190,1.332-282-1c0-93.334,0-186.666,0-280C256.914,159.581,256.835,158.168,258,158z M430,388
		c30.166,0.164,67.661-1.005,98-4c-14.541-2.459-33.821-0.179-45-6c14.303-3.03,37.842,3.175,45-7c-10.102-5.565-31.041-0.293-42-5
		c5.289-0.471,11.83-2.52,19-3c8.012-0.537,20.464,2.773,23-3c-1.698-8.031-14.157-4.241-22-5c-7.024-0.68-12.604-2.866-17-4
		c12.216-1.451,30.546,3.213,38-3c-17.45-0.117-32.938,1.729-51,1c-11.947,5.501-24.344,26.49-38,29
		c-10.568,1.942-25.818-2.666-39-4c-36.292-3.673-79.254-5.269-114-7c-6.994-0.349-16.599-2.271-18,2c0,0.667,0,1.333,0,2
		c18.729,3.614,55.794,3.482,77,11c-18.369-2.844-37.577-1.256-55-1c-6.275,0.092-19.288-4.594-22,2c1.724,5.314,9.826,3.352,14,3
		c21.033-1.771,50.508-4.918,71,2c-26.371,4.921-65.09-7.295-83,7c85.862-0.53,179.064,1.144,260-1
		c-49.042-7.806-111.114,2.923-155-9c34.557,4.434,67.644-8.879,96-7C457.609,381.654,433.974,379.246,430,388z M267,212
		c3.333,0,6.667,0,10,0c-3.751-13.249-0.306-33.694-7-44c-1,0-2,0-3,0C267,182.667,267,197.333,267,212z M296,212c6,0,12,0,18,0
		c-6.171-11.829-8.757-27.243-10-44c-5.68,0.653-13.982-1.315-18,1C299.894,174.206,314.478,200.873,296,212z M324,201
		c4.818-7.849,3.762-21.571,5-33c-4.333,0-8.667,0-13,0C320.025,177.641,318.339,192.994,324,201z M332,212c5,0,10,0,15,0
		c0.018-15.352-1.175-29.492-2-44c-1,0-2,0-3,0C340.227,184.227,339.359,201.359,332,212z M368,198c6.784,2.882,9.342,9.991,16,13
		c0-14.333,0-28.667,0-43c-6.345,0.655-15.318-1.318-20,1C376.417,170.672,376.235,191.827,368,198z M401,183c0.667,0,1.333,0,2,0
		c1.625-3.329,2.3-14.272-2-15c-0.667,0-1.333,0-2,0C400.131,172.536,396.612,181.721,401,183z M418,212
		c10.962-11.038,15.923-28.078,22-44c-7.333,0-14.667,0-22,0C418,182.667,418,197.333,418,212z M472,211c0-14.333,0-28.667,0-43
		c-6.333,0-12.667,0-19,0C458.051,183.616,464.453,197.88,472,211z M490,176c1.745,1.159,6.035,7.034,8,7
		c1.704-0.029,7.504-6.977,9-8c4.33-2.96,8.169-3.745,11-7c-13.669,0.664-29.996-1.33-42,1C480.104,171.717,485.546,173.043,490,176
		z M522,168c0.684,14.982-1.825,33.159,3,44c1.333,0,2.667,0,4,0c2.33-12.67,0.336-29.664,1-44C527.333,168,524.667,168,522,168z
		 M358,189c6.098-0.453,6.098-9.547,0-10C358,182.333,358,185.667,358,189z M287,197c4.245-0.755,4.457-5.543,6-9
		c-2.735-0.931-4.265-3.069-7-4C285.766,188.9,287.762,191.571,287,197z M442,196c2.631,1.036,6.137,1.197,10,1
		c-1.5-4.167-1.911-9.423-6-11C445.936,190.602,443.158,192.491,442,196z M488,212c7,0,14,0,21,0c0-6.667,0-13.333,0-20
		c-5.903,2.096-7.924,8.076-13,11c-2.922-3.745-5.538-7.795-9-11C486.641,199.36,487.258,205.742,488,212z M399,212
		c1.758-0.575,5.875,1.208,6-1c-2.3-2.367-0.358-8.975-1-13c-1.667,0-3.333,0-5,0C399,202.667,399,207.333,399,212z M359,212
		c2.465-0.132,4.818-0.151,6,1c-0.095-3.905-4.042-3.958-6-6C359,208.667,359,210.333,359,212z M432,212
		c9.006-0.661,20.659,1.325,28-1C453.831,207.375,437.232,208.268,432,212z M513,220c-77.591,0.41-156.974-0.975-233,1
		c-4.88,0.319,0.964,1.58,3,1c11.239,2.761,28.826-0.826,40,2c-12.441,7.226-35.815,3.518-50,9c16.054,1.279,33.757,0.91,46,6
		c-15.379,2.621-37.608-1.608-51,3c13.785-0.118,25.517,1.817,37,4c-12.085,1.248-25.834,0.832-38,2c3.538,7.129,21.967-0.634,27,5
		c-8.926,1.741-23.068-1.734-27,5c5.362,1.638,13.787,0.213,18,3c-7.388,0.332-11.083,2.401-18,1c-2.749,11.416,11.545,5.788,15,11
		c-5,0-10,0-15,0c0,9,0,18,0,27c1.188,2.478,7.314,0.02,7,4c-3.164-1.374-3.342-0.218-7,0c0,4.667,0,9.333,0,14
		c1.288,2.379,6.494,0.84,7,4c-3.247-0.58-4.652,0.681-7,1c0,6.333,0,12.667,0,19c4.242,0.758,8.758,1.242,13,2
		c-1.16-20.84,3.114-47.114-4-62c7.108-1.558,15.144-2.189,22-4c1.306-5.972-1.882-7.451-3-11c7.785-5.075,15.228-10.367,24-16
		c7.455-4.787,17.282-15.058,25-16c5.65-0.689,14.258,3.33,22,5c16.39,3.537,30.016,5.826,44,11c7.137,2.641,14.429,7.856,20,8
		c6.392,0.165,15.319-4.489,22-6c25.727-5.82,44.257-8.339,70-15c-10.005-0.662-22.66,1.327-31-1c8.351-4.982,24.116-2.551,34-6
		c-17.615-5.765-43.842,1.822-61-3C479.087,224.751,501.002,223.005,513,220z M342,240c-12.955,9.379-27.034,17.633-39,28
		c27.338-5.329,52.729-12.605,81-17C374.253,243.08,355.487,244.179,342,240z M436,263c24.924-5.171,56.445-12.159,82-19
		C489.771,249.438,460.835,254.168,436,263z M437,265c-15.877-3.792-30.07-14.593-46-15C408.07,252.599,422.016,263.647,437,265z
		 M444,268c23.308-3.413,49.754-12.207,74-18C491.276,253.943,467.108,260.441,444,268z M444,271c-16.896-5.439-35.127-14.871-52-17
		C409.606,258.729,427.85,268.147,444,271z M450,272c11.133-0.007,22.568-5.163,35-8c12.007-2.74,25.562-5.207,35-11
		C496.102,258.768,469.294,261.627,450,272z M302,273c22.992-5.94,51.536-9.92,75-15c2.096-0.454,7.499-0.541,6-3
		C355.117,260.117,326.519,264.519,302,273z M292,362c41.861,7.151,94.942,2.821,141,7c8.231-4.771,19.151-11.883,27-17
		c2.405-1.568,8.018-2.52,6-5c-12.214,7.119-24.489,14.178-37,21c-23.296-5.704-59.042,1.042-77-10c3.367-0.633,9.289,1.288,11-1
		c-2.661-1.339-7.682-0.318-9-3c3.372-1.629,10.079,0.079,13-2c-4.617-1.384-9.477-2.523-16-2c-6.262,2.071-5.183,11.484-12,13
		c1.902-5.765,5.188-10.146,9-14c15.329,1.005,33.476-0.809,46,3c-2.72,0.663-11.304,0.63-10,2c4.517,0.816,12.594-1.927,14,2
		c-6.349-0.228-10.812-1.461-16,1c8.228,0.644,18.153-1.057,24,4c-11.306-2.309-23.502-0.462-38-1c9.434,3.615,25.016,2.342,36,2
		c4.75-0.147,9.854,3.288,12-2c-3.63-5.704-10.35-8.317-17-11c0-11.333,0-22.667,0-34c2.555,0.765,4.598,1.473,6-1
		c-1.758-0.575-5.875,1.209-6-1c0.007-9.608,0.276-21.605-1-27c1.758-0.575,5.875,1.208,6-1c-1.282-1.717-5.979-0.021-6-3
		c0.656-6.677-1.32-15.986,1-21c1.353,0.314,1.91,1.423,4,1c0.147,4.364-0.199,9.798,0,13c0.912,14.632,0.225-12.965,4-12
		c1.057,32.939-0.508,57.521,3,86c15.742-0.258,26.283-5.717,41-7c0.195-5.318-6.975-1.05-8-3c2.115-4.147-0.54-12.103-1-17
		c1.064-2.375,4.605,2.144,6-1c-0.694-1.973-5.58,0.246-6-2c0.138-7.485-2.797-17.184,0-24c0.613,0.292,3.85,2.487,4,0
		c-9.094,0.093-4.196-13.804-7-20c2.562-1.084,4.768,3.038,6,0c-17.911-4.424-34.73-15.267-53-16c-1.636,6.508,2.037,18.764-4,25
		c-3.591,0.409-7.747,0.253-9,3c3.492,0.758,7.55-3.027,10,0c0,9,0,18,0,27c-1.86,0.552-9.077,0.816-7,2
		c11.323-2.322,6.623,11.377,8,19c-3.466,0.533-9.485-1.485-10,2c3.04,0.627,8.613-1.28,10,1c-0.619,2.714,1.27,7.937-1,9
		c-5.454-0.588-9.575,0.721-11-2c-1.173-21.99,2.557-42.701-5-58c-0.609,2.391,1.255,7.255-1,8c-1.314-8.019,0.233-18.9-3-25
		c-0.086,5.753-0.216,11.549,1,16c-5.275-0.275-9.593,0.407-12,3c4.729,0.395,8.346-0.321,12-1c0.564,9.436,1.452,18.548,1,29
		c-1.652-0.922-11.006-2.863-11,1c3.367,0.633,9.289-1.288,11,1c-0.651,5.349,1.313,13.313-1,17c-3.492,0.758-7.55-3.026-10,0
		c4.032,2.01,8.153,0.701,11,2c-1.218,3.63,2,7.895,0,9c-4.802-0.435-13.333,0.622-15,0c1.923-18.963,1.234-43.871-2-61
		c-0.243,4.09,0.974,9.641-2,11c-0.623-8.377-0.124-17.876-3-24c-0.754,6.088,1.598,9.068,1,15c-3.219,2.115-11.251-0.584-13,3
		c5.265,0.598,8.592-0.742,13-1c-0.293,8.96,1.768,15.565,1,25c-4.534,0.163-12.319,2.307-15,1c0.648-11.282-2.158-18.382-3-25
		c-0.431,3.236,1.316,8.649-2,9c-0.73-9.895,0.419-15.335-1-23c-1.299-7.017-2.815,19.481-1,2c-2.061,19.85,4.618,52.272,2,68
		c-16.175-5.005-17.497,11.106-29,12c0.327-4.673,5.673-4.327,6-9c-9.314-2.275-9.689,12.039-24,8
		C285.911,361.285,289.091,361.503,292,362z M327,271c-5.965,1.374-14.835,0.954-16,5c23.052-6.281,47.907-10.76,73-15
		c1.535-0.239,0.147-1.647-1-2C364.47,261.571,343.079,267.297,327,271z M445,264c-6.244,2.622,8.673-0.11,11-3
		C450.863,262.756,446.74,263.27,445,264z M506,265c-0.155,3.822,0.052,7.282,2,9c0-2.333,0-4.667,0-7c2.901-0.766,5.752-1.582,7-4
		C511.778,263.445,509.582,264.916,506,265z M496,299c-3.236,0.431-8.649-1.316-9,2c3.467,0.533,9.485-1.485,10,2
		c-4.667,0-9.333,0-14,0c0-2.667,0-5.333,0-8c4.104,0.105,8.164,0.164,10-2c-4.071-1.057-4.737,0.281-10,0
		c-1.879-0.216-0.121-9.084-2-6c-0.25,14.916,0.062,29.271,1,43c4.743-3.642,0.489-20.312,2-24c1.893-1.774,6.604-0.729,10-1
		c5.5,4.833-1.516,22.183,8,23c-0.243-21.424,0.585-43.918-4-61c0.207,2.874-0.254,5.08-2,6c-0.168-1.702-3.305-8.137-2-5
		C495.301,277.699,494.43,289.57,496,299z M483,275c-1.259-6.259,7.066-2.934,8-7C486.992,268.438,477.234,271.133,483,275z
		 M518,301c-4.449-0.782-6.002,1.332-10,1c-0.376-5.324-2.324-14.093-2-15c-3.668,10.274,2.078,34.728,2,44
		c3.51,2.532,8.861-0.008,13,0c-0.238-22.095,0.966-45.632-4-63C518.574,277.76,517.859,289.807,518,301z M473,298
		c-2.786,0.88-6.085,1.248-8,3c2.391,0.609,7.256-1.255,8,1c-1.834,2.297-9.135,2.887-12,1c0.772-4.772-1.563-6.436-1-11
		c-0.945,7.046-4.873,37.289,4,46c-2.341,0.257-0.576,4.394,0,5c5.459-0.542,12.667,0.667,15-3c-1.048-3.285-10.847,2.181-9-4
		c0.744-2.255,5.609-0.391,8-1c-0.605-21.729-2.785-41.882-2-65C464.806,270.408,471.049,292.235,473,298z M460,276
		c0.281,6.386,1.057,12.277,3,17c0.779-6.446-1.486-9.848-1-16c1.273-1.393,4.898-0.435,5-3
		C463.899,273.899,462.223,275.223,460,276z M315,279c-1.448,17.395,1.85,35.806,1,51c-0.3,5.373-4.375,13.676,2,16
		c1.879-2.454,0.848-7.818,3-10c2.651-0.016,5.888,0.555,6-2c-3.16-1.378-6.035,2.476-7,0c-0.842-3.825-1.306-8.027-1-13
		c2.672-0.661,6.248-0.419,8-2c-1.04-2.294-7.141,0.474-8-2c0-7.667,0-15.333,0-23c1.283-1.717,5.979-0.021,6-3
		c-3.056-0.723-3.644,1.022-6,1c-2.969-3.364,1.73-14.396-3-16C315.843,277.177,316.172,278.838,315,279z M305,283
		c-0.02-2.98,0.093-6.093-3-6C301.959,280.041,301.418,283.582,305,283z M507,279c2.225,2.106,4.822-1.054,9,0
		C516.121,275.032,507.353,277.033,507,279z M453,337c2.507,0.826,3.163,3.503,5,5c-1.684-19.983-1.471-41.862-4-61
		c-2.336,5.224-1.215-2.073-3-3C451.784,301.939,452.963,313.476,453,337z M483,282c3.236-0.431,8.649,1.316,9-2
		C488.178,279.845,484.719,280.052,483,282z M282,286c5.249-1.417,12.786-0.547,16-4C292.956,283.623,285.467,282.8,282,286z
		 M283,291c3.85,1.47,10.885-1.505,15-3C291.737,287.737,286.593,288.593,283,291z M304,347c2.333,0,4.667,0,7,0
		c0.506-6.185-6.978,0.164-7-4c-1.766-6.433,5.818-3.516,7-7c-2.072-0.595-6.569,1.236-7-1c0.983-4.017,1.226-8.774,1-14
		c2.48,0.147,4.853,0.187,5-2c-7.586,6.026-5.582-24.165-5-25c2.24-3.218,5.652,4.509,4-1c-0.019-0.062-7.328-3.573-6-5
		C301.199,306.269,301.433,332.76,304,347z M406,312c-0.604-8.062-0.389-16.945-2-24C402.902,293.966,402.766,307.087,406,312z
		 M292,312c0.1-3.1-0.453-5.547-2-7c-0.438,3.438,0.395,5.604,1,8c-3.315-0.902-4.338,5.556-6,3c-0.605-2.062,1.614-6.947-2-6
		c-0.004,10.004,0.875,19.125,2,28c3.671,0.695,7.603,1.726,11,0c0.702-2.965-2.09-9.424,3-8c-1.565-2.436-4.329-3.671-3-9
		c1,0,2,0,3,0c-1.061-4.078-0.158-4.938-1-10c-6.375,2.992-2.528-9.405-5-7C292.391,306.391,294.255,311.256,292,312z M406,332
		c-0.405-2.979,0.969-12.901-1-11C405.405,323.979,404.031,333.901,406,332z M483,334c5.266,2.887,11.244-1.146,18,0
		C499.19,330.535,484.885,330.966,483,334z M508,337c1.204,3.75,13.787,2.785,14-1C519.774,334.82,508.63,333.263,508,337z M484,340
		c4.093,1.398,15.634,1.654,17-3C494.909,337.576,485.973,335.307,484,340z M288,343c2.51,0.823,8.611-1.944,8,2
		c-1.795,2.538-9.279-0.612-10,3c3.214,2.236,9.418,0.549,13,0c0-2.333,0-4.667,0-7C294.632,340.965,289.965,340.631,288,343z
		 M416,354c12.348,0.282,28.223-4.396,38-10C440.409,346.409,427.517,349.517,416,354z M267,360c4.424-3.575,11.346-4.654,11-13
		c-2.147-1.854-7.325-0.675-11-1C267,350.667,267,355.333,267,360z M422,360c3.73,0.603,4.905,3.761,9,4
		c7.021-5.979,17.464-8.536,25-14C443.507,352.174,434.982,358.315,422,360z M295,351c-3.367,0.633-9.289-1.288-11,1
		C288.529,352.379,291.452,353.314,295,351z M294,354c-3.367,0.633-9.289-1.288-11,1C286.367,354.367,292.289,356.288,294,354z
		 M424,365c-0.198-1.896-5.831-3.374-7-1C419.562,363.533,422.669,367.537,424,365z M268,432c3.215-10.451,10.287-17.046,12-29
		c-4.333,0-8.667,0-13,0C267.661,412.339,265.674,424.326,268,432z M302,428c0.635-9.302-1.731-15.602-1-25c-3.333,0-6.667,0-10,0
		C293.849,412.151,297.358,420.643,302,428z M317,422c4.742,2.592,6.432,8.234,12,10c1.254-5.623,1.764-15.476,0-21
		c-4.551-0.116-7.382-1.951-6-8c-1.758,0.575-5.875-1.209-6,1C323.176,407.914,320.463,417.354,317,422z M344,410
		c-2.826-0.826-2.591,1.409-5,1c0,7,0,14,0,21c8.444,1.111,9.421-5.245,11-11c-2.975-5.241-7.568-12.477-2-18c-1.333,0-2.667,0-4,0
		C344,405.333,344,407.667,344,410z M356,410c4.312,5.523,5.786,16.878,0,22c10.338-0.662,23.327,1.327,32-1
		c-5.966-1.779-9.559-6.366-10-12c-0.656-8.367,7.448-12.819,6-16C372.938,403.604,357.613,399.946,356,410z M398,409
		c-4.143,2.191-7.89,4.776-9,10c2.499,4.502,10.788,3.212,8,13c2.391-0.609,7.255,1.255,8-1c-8.71-4.238-8.722-21.506-2-28
		c-2.714,0.619-7.936-1.27-9,1C395.714,405.286,397.932,406.067,398,409z M420,414c-0.442-3.891-0.756-7.91-2-11
		c-1.177,0.156-2.839-0.172-3,1C417.961,406.039,417.632,411.368,420,414z M431,424c5.592-2.233,3.802-16.649,4-21
		c-2.333,0-4.667,0-7,0C428.292,410.708,430.466,416.534,431,424z M438,432c2.667,0,5.333,0,8,0c-0.661-9.339,1.326-21.326-1-29
		C442.999,412.999,442.765,424.765,438,432z M463,413c0-3.333,0-6.667,0-10c-4.333,0-8.667,0-13,0
		C453.162,407.504,457.349,410.984,463,413z M473,432c3.695-0.638,9.962,1.295,12-1c-12.557-1.45-12.489-23.259-3-28c-3,0-6,0-9,0
		C473,412.667,473,422.333,473,432z M494,409c-4.178-0.511-6.775,0.558-9,2c0,2.333,0,4.667,0,7c2.211,2.456,5.736,3.598,9,5
		c0.898,2.768-2.055,9.388,2,9c5.106-3.227-0.442-17.109,3-22c2.391,0.609,7.255-1.256,8,1c0.979,7.021-0.76,16.76,3,21
		c0.667,0,1.333,0,2,0c0.766-7.111,1.342-22.666-2-29c-5.016-2.016-1.454,4.546-4,5c-2.667,0-5.333,0-8,0
		c-0.443-1.89,1.36-6.026-2-5c-0.667,0-1.333,0-2,0C491.82,405.091,494.5,405.854,494,409z M521,424c8.938-3.604,1.348,9.319,8,8
		c2.326-7.674,0.339-19.661,1-29c-3.333,0-6.667,0-10,0C520.154,410.18,519.404,418.263,521,424z M311,416
		c1.933-2.477,2.773-5.947-1-7C310.595,411.071,308.764,415.569,311,416z M408,422c5.813,0.551,5.227-11.323,0-11
		C405.476,413.648,405.476,419.352,408,422z M283,421c2.072-0.595,6.569,1.236,7-1c-2.677-0.989-1.241-6.092-5-6
		C285.658,417.658,282.836,417.836,283,421z M411,432c4.686-0.647,11.975,1.308,15-1c-3.837-2.184-4.181-13.126-6-14
		C420.927,425.927,414.785,427.785,411,432z M455,432c4.686-0.647,11.975,1.308,15-1c-5.546-2.454-9.113-6.887-15-9
		C455,425.333,455,428.667,455,432z M310,432c1.453-0.547,5.168,1.169,5-1c-3.14,0.473-2.642-2.691-5-3
		C310,429.333,310,430.667,310,432z M276,430c2.183,3.838,15.193,2.112,19,1C291.552,427.346,283.282,431.358,276,430z"/>
	<path fill-rule="evenodd" clip-rule="evenodd" d="M473,306c-0.429,9.429,0.391,17.609,1,26c-4,0-8,0-12,0c0-4.333,0-8.667,0-13
		c1.615-0.281,1.722,0.945,3,1c-2.455-2.545-3.828-6.172-3-12C466.327,307.993,468.346,305.679,473,306z"/>
</g>
</svg>
