<?xml version="1.0" encoding="utf-8"?>
<!-- Generator: Adobe Illustrator 21.0.2, SVG Export Plug-In . SVG Version: 6.00 Build 0)  -->
<svg version="1.1" id="Layer_1" xmlns="http://www.w3.org/2000/svg" xmlns:xlink="http://www.w3.org/1999/xlink" x="0px" y="0px"
	 viewBox="0 0 282 284" style="enable-background:new 0 0 282 284;" xml:space="preserve">
<g>
	<path d="M185,72c-10.2,4.1-31.7,4.3-43,1C153.6,70.5,172.4,70.1,185,72z"/>
	<path d="M151,80c9-2.7,21.4-0.1,31,0C176.2,85.3,156.4,85.9,151,80z"/>
	<path d="M129,83c20.6,2.1,45.9,5,69,6C178.7,99.2,150.2,86.3,129,83z"/>
	<path d="M120,91c-21,5.6-43.7,9.6-65,15c9.2-8.1,20.1-14.5,30-22C96.1,86.9,108.5,88.6,120,91z"/>
	<path d="M137,102c4.1,16.2,2.5,38.2,3,58C136,143.7,139,120.4,137,102z"/>
	<path d="M153,107c3.1-0.7,2.9,1.7,6,1c-0.1,8.5,1,15.6,2,23c-2.4-1.6-6.4-1.6-9-3C151.9,120.5,153.8,115.1,153,107z"/>
	<path d="M164,111c1.8-0.1,2.1,1.2,4,1c1.4,5.9,1.6,13,2,20c-3.1,0.7-2.9-1.7-6-1C164,124.3,164,117.7,164,111z"/>
	<path d="M178,116c0.2,6.8,1.4,12.6,2,19c-3.9,0.2-5.2-2.1-8-3c-0.3-6,0.8-13.5-1-18C173.2,112,175.5,115.4,178,116z"/>
	<path d="M153,130c1.9,1.1,4.7,1.3,7,2c1.3,7.7,0.1,17.9,2,25c-2,2.9-6.2-0.3-9,0C153.4,147.6,150.5,138.5,153,130z"/>
	<path d="M164,133c2.3,0.7,5.1,0.9,7,2c-0.7,9.1,1.1,15.5,1,24c-2,0-4,0-6,0C163.8,151.3,166,138.3,164,133z"/>
	<path d="M173,135c3.2-0.5,3.5,1.8,7,1c-0.5,8.3,0.7,19.8,0,25C169.1,161,175.2,143.9,173,135z"/>
	<path d="M261,145c-0.1,11.2-0.1,13,1,25c-3.3,0-6.7,0-10,0c0-4,0-8,0-12c2.6-0.4,5.5-0.5,7-2c-0.8-2.4-5.2,0.1-6,1
		c-2.9-1.1,0.9-8.9-2-10C253.5,145.5,257.1,145.1,261,145z"/>
	<path d="M153,159c3.2-0.2,4.2,1.8,8,1c0.9,8.8,1.5,17.8,2,27c-4.3-0.9-6.6,3.1-9,1C154.8,177.2,152.7,169.4,153,159z"/>
	<path d="M79,161c5.5-0.2,10.8-0.1,15,1c-0.2,8.5-0.1,16.8,1,24c2.2-0.1,0.4-4.2,1-6c3.1,0.2,1.7,5,2,8c-6.3,0-12.7,0-19,0
		C79.6,177.7,79,172.1,79,161z M86,177c-1.3-0.1-7.2-0.2-4,1c1.5,0.2,3.7-0.4,4,1c0.2,0.8,0,2,1,2c-2.9-5,7.4-1.8,4-4
		c-7.4,1.8-1.7-9.6-5-12C86,169,86,173,86,177z"/>
	<path d="M166,161c3.1-0.7,3.6,1,6,1c-1.3,6.9,2.3,13.4,0,18c-2.2-0.4-0.4-4.9-1-7c-2,1-2.2,3.8-2,7
		C166.2,175.5,166.4,167.9,166,161z"/>
	<path d="M175,162c3.1-0.7,2.9,1.7,6,1c-0.5,7.5,1.8,12.2,1,20c-3.7-0.7-4.3,1.7-8,1C176.2,178.5,174.5,169.1,175,162z"/>
	<path d="M32,163c4.1-1.2,4,7,1,7C28.9,171.2,29,163,32,163z"/>
	<path d="M33,171c2.4,2.1,0.6,8.5-3,8c0-2.3,0-4.7,0-7C31.5,172.1,32.9,172.2,33,171z"/>
	<path d="M86,191c-0.7,5.7-5.1,7.6-6,13c-10.7,0.7-18.1-1.9-28-2C56.3,189.3,71.3,189.3,86,191z M62,193c-0.1,1.5,14.9,1.8,18,0
		C75,192.5,66.8,190.7,62,193z M78,197c-5-1.8-14.5-3.3-19,0C65.4,197,71.7,197,78,197z M60,201c5.3-0.7,13.3,1.3,17-1
		c-7.1,1.1-14.2-3.1-20,0C58.2,200.2,59.9,199.8,60,201z"/>
	<path d="M93,218c11.2-0.9,26.4,2.9,40,3C120.8,225.1,102.6,222.7,93,218z"/>
	<path d="M1,0c94,0,188,0,282,0c-0.7,94.3,1.3,191.3-1,284c-93.7-0.7-190,1.3-282-1C0,189.7,0,96.3,0,3C0,1.6-0.1,0.2,1,0z M173,230
		c30.2,0.2,67.7-1,98-4c-14.5-2.5-33.8-0.2-45-6c14.3-3,37.8,3.2,45-7c-10.1-5.6-31-0.3-42-5c5.3-0.5,11.8-2.5,19-3
		c8-0.5,20.5,2.8,23-3c-1.7-8-14.2-4.2-22-5c-7-0.7-12.6-2.9-17-4c12.2-1.5,30.5,3.2,38-3c-17.4-0.1-32.9,1.7-51,1
		c-11.9,5.5-24.3,26.5-38,29c-10.6,1.9-25.8-2.7-39-4c-36.3-3.7-79.3-5.3-114-7c-7-0.3-16.6-2.3-18,2c0,0.7,0,1.3,0,2
		c18.7,3.6,55.8,3.5,77,11c-18.4-2.8-37.6-1.3-55-1c-6.3,0.1-19.3-4.6-22,2c1.7,5.3,9.8,3.4,14,3c21-1.8,50.5-4.9,71,2
		c-26.4,4.9-65.1-7.3-83,7c85.9-0.5,179.1,1.1,260-1c-49-7.8-111.1,2.9-155-9c34.6,4.4,67.6-8.9,96-7C200.7,223.7,177,221.2,173,230
		z M10,54c3.3,0,6.7,0,10,0c-3.8-13.2-0.3-33.7-7-44c-1,0-2,0-3,0C10,24.7,10,39.3,10,54z M39,54c6,0,12,0,18,0
		c-6.2-11.8-8.8-27.2-10-44c-5.7,0.7-14-1.3-18,1C42.9,16.2,57.5,42.9,39,54z M67,43c4.8-7.8,3.8-21.6,5-33c-4.3,0-8.7,0-13,0
		C63.1,19.6,61.4,35,67,43z M75,54c5,0,10,0,15,0c0-15.4-1.2-29.5-2-44c-1,0-2,0-3,0C83.3,26.2,82.4,43.4,75,54z M111,40
		c6.8,2.9,9.3,10,16,13c0-14.3,0-28.7,0-43c-6.3,0.7-15.3-1.3-20,1C119.5,12.7,119.3,33.8,111,40z M144,25c0.7,0,1.3,0,2,0
		c1.6-3.3,2.3-14.3-2-15c-0.7,0-1.3,0-2,0C143.2,14.5,139.7,23.7,144,25z M161,54c11-11,15.9-28.1,22-44c-7.3,0-14.7,0-22,0
		C161,24.7,161,39.3,161,54z M215,53c0-14.3,0-28.7,0-43c-6.3,0-12.7,0-19,0C201.1,25.6,207.5,39.9,215,53z M233,18c1.7,1.2,6,7,8,7
		c1.7,0,7.5-7,9-8c4.3-3,8.2-3.7,11-7c-13.7,0.7-30-1.3-42,1C223.1,13.7,228.6,15,233,18z M265,10c0.7,15-1.8,33.2,3,44
		c1.3,0,2.7,0,4,0c2.3-12.7,0.3-29.7,1-44C270.4,10,267.7,10,265,10z M101,31c6.1-0.5,6.1-9.5,0-10C101,24.3,101,27.7,101,31z
		 M30,39c4.2-0.8,4.5-5.5,6-9c-2.7-0.9-4.3-3.1-7-4C28.8,30.9,30.8,33.6,30,39z M185,38c2.6,1,6.1,1.2,10,1c-1.5-4.2-1.9-9.4-6-11
		C189,32.6,186.2,34.5,185,38z M231,54c7,0,14,0,21,0c0-6.7,0-13.3,0-20c-5.9,2.1-7.9,8.1-13,11c-2.9-3.7-5.5-7.8-9-11
		C229.7,41.4,230.3,47.7,231,54z M142,54c1.8-0.6,5.9,1.2,6-1c-2.3-2.4-0.4-9-1-13c-1.7,0-3.3,0-5,0C142,44.7,142,49.3,142,54z
		 M102,54c2.5-0.1,4.8-0.2,6,1c-0.1-3.9-4-4-6-6C102,50.7,102,52.3,102,54z M175,54c9-0.7,20.7,1.3,28-1
		C196.9,49.4,180.3,50.3,175,54z M256,62c-77.6,0.4-157-1-233,1c-4.9,0.3,1,1.6,3,1c11.2,2.8,28.8-0.8,40,2c-12.4,7.2-35.8,3.5-50,9
		c16.1,1.3,33.8,0.9,46,6c-15.4,2.6-37.6-1.6-51,3c13.8-0.1,25.5,1.8,37,4c-12.1,1.2-25.8,0.8-38,2c3.5,7.1,22-0.6,27,5
		c-8.9,1.7-23.1-1.7-27,5c5.4,1.6,13.8,0.2,18,3c-7.4,0.3-11.1,2.4-18,1c-2.7,11.4,11.5,5.8,15,11c-5,0-10,0-15,0c0,9,0,18,0,27
		c1.2,2.5,7.3,0,7,4c-3.2-1.4-3.3-0.2-7,0c0,4.7,0,9.3,0,14c1.3,2.4,6.5,0.8,7,4c-3.2-0.6-4.7,0.7-7,1c0,6.3,0,12.7,0,19
		c4.2,0.8,8.8,1.2,13,2c-1.2-20.8,3.1-47.1-4-62c7.1-1.6,15.1-2.2,22-4c1.3-6-1.9-7.5-3-11c7.8-5.1,15.2-10.4,24-16
		c7.5-4.8,17.3-15.1,25-16c5.6-0.7,14.3,3.3,22,5c16.4,3.5,30,5.8,44,11c7.1,2.6,14.4,7.9,20,8c6.4,0.2,15.3-4.5,22-6
		c25.7-5.8,44.3-8.3,70-15c-10-0.7-22.7,1.3-31-1c8.4-5,24.1-2.6,34-6c-17.6-5.8-43.8,1.8-61-3C222.1,66.8,244,65,256,62z M85,82
		c-13,9.4-27,17.6-39,28c27.3-5.3,52.7-12.6,81-17C117.3,85.1,98.5,86.2,85,82z M179,105c24.9-5.2,56.4-12.2,82-19
		C232.8,91.4,203.9,96.2,179,105z M180,107c-15.9-3.8-30.1-14.6-46-15C151.1,94.6,165.1,105.6,180,107z M187,110
		c23.3-3.4,49.8-12.2,74-18C234.3,95.9,210.2,102.4,187,110z M187,113c-16.9-5.4-35.1-14.9-52-17C152.6,100.7,170.9,110.1,187,113z
		 M193,114c11.1,0,22.6-5.2,35-8c12-2.7,25.6-5.2,35-11C239.1,100.8,212.3,103.6,193,114z M45,115c23-5.9,51.5-9.9,75-15
		c2.1-0.5,7.5-0.5,6-3C98.2,102.1,69.6,106.5,45,115z M35,204c41.9,7.2,94.9,2.8,141,7c8.2-4.8,19.2-11.9,27-17c2.4-1.6,8-2.5,6-5
		c-12.2,7.1-24.5,14.2-37,21c-23.3-5.7-59,1-77-10c3.4-0.6,9.3,1.3,11-1c-2.7-1.3-7.7-0.3-9-3c3.4-1.6,10.1,0.1,13-2
		c-4.6-1.4-9.5-2.5-16-2c-6.3,2.1-5.2,11.5-12,13c1.9-5.8,5.2-10.1,9-14c15.3,1,33.5-0.8,46,3c-2.7,0.7-11.3,0.6-10,2
		c4.5,0.8,12.6-1.9,14,2c-6.3-0.2-10.8-1.5-16,1c8.2,0.6,18.2-1.1,24,4c-11.3-2.3-23.5-0.5-38-1c9.4,3.6,25,2.3,36,2
		c4.8-0.1,9.9,3.3,12-2c-3.6-5.7-10.4-8.3-17-11c0-11.3,0-22.7,0-34c2.6,0.8,4.6,1.5,6-1c-1.8-0.6-5.9,1.2-6-1c0-9.6,0.3-21.6-1-27
		c1.8-0.6,5.9,1.2,6-1c-1.3-1.7-6,0-6-3c0.7-6.7-1.3-16,1-21c1.4,0.3,1.9,1.4,4,1c0.1,4.4-0.2,9.8,0,13c0.9,14.6,0.2-13,4-12
		c1.1,32.9-0.5,57.5,3,86c15.7-0.3,26.3-5.7,41-7c0.2-5.3-7-1-8-3c2.1-4.1-0.5-12.1-1-17c1.1-2.4,4.6,2.1,6-1c-0.7-2-5.6,0.2-6-2
		c0.1-7.5-2.8-17.2,0-24c0.6,0.3,3.9,2.5,4,0c-9.1,0.1-4.2-13.8-7-20c2.6-1.1,4.8,3,6,0c-17.9-4.4-34.7-15.3-53-16
		c-1.6,6.5,2,18.8-4,25c-3.6,0.4-7.7,0.3-9,3c3.5,0.8,7.5-3,10,0c0,9,0,18,0,27c-1.9,0.6-9.1,0.8-7,2c11.3-2.3,6.6,11.4,8,19
		c-3.5,0.5-9.5-1.5-10,2c3,0.6,8.6-1.3,10,1c-0.6,2.7,1.3,7.9-1,9c-5.5-0.6-9.6,0.7-11-2c-1.2-22,2.6-42.7-5-58
		c-0.6,2.4,1.3,7.3-1,8c-1.3-8,0.2-18.9-3-25c-0.1,5.8-0.2,11.5,1,16c-5.3-0.3-9.6,0.4-12,3c4.7,0.4,8.3-0.3,12-1
		c0.6,9.4,1.5,18.5,1,29c-1.7-0.9-11-2.9-11,1c3.4,0.6,9.3-1.3,11,1c-0.7,5.3,1.3,13.3-1,17c-3.5,0.8-7.5-3-10,0c4,2,8.2,0.7,11,2
		c-1.2,3.6,2,7.9,0,9c-4.8-0.4-13.3,0.6-15,0c1.9-19,1.2-43.9-2-61c-0.2,4.1,1,9.6-2,11c-0.6-8.4-0.1-17.9-3-24
		c-0.8,6.1,1.6,9.1,1,15c-3.2,2.1-11.3-0.6-13,3c5.3,0.6,8.6-0.7,13-1c-0.3,9,1.8,15.6,1,25c-4.5,0.2-12.3,2.3-15,1
		c0.6-11.3-2.2-18.4-3-25c-0.4,3.2,1.3,8.6-2,9c-0.7-9.9,0.4-15.3-1-23c-1.3-7-2.8,19.5-1,2c-2.1,19.9,4.6,52.3,2,68
		c-16.2-5-17.5,11.1-29,12c0.3-4.7,5.7-4.3,6-9c-9.3-2.3-9.7,12-24,8C29,203.3,32.1,203.5,35,204z M70,113c-6,1.4-14.8,1-16,5
		c23.1-6.3,47.9-10.8,73-15c1.5-0.2,0.1-1.6-1-2C107.5,103.6,86.1,109.3,70,113z M188,106c-6.2,2.6,8.7-0.1,11-3
		C193.9,104.8,189.8,105.3,188,106z M249,107c-0.2,3.8,0.1,7.3,2,9c0-2.3,0-4.7,0-7c2.9-0.8,5.8-1.6,7-4
		C254.8,105.4,252.6,106.9,249,107z M239,141c-3.2,0.4-8.6-1.3-9,2c3.5,0.5,9.5-1.5,10,2c-4.7,0-9.3,0-14,0c0-2.7,0-5.3,0-8
		c4.1,0.1,8.2,0.2,10-2c-4.1-1.1-4.7,0.3-10,0c-1.9-0.2-0.1-9.1-2-6c-0.2,14.9,0.1,29.3,1,43c4.7-3.6,0.5-20.3,2-24
		c1.9-1.8,6.6-0.7,10-1c5.5,4.8-1.5,22.2,8,23c-0.2-21.4,0.6-43.9-4-61c0.2,2.9-0.3,5.1-2,6c-0.2-1.7-3.3-8.1-2-5
		C238.3,119.7,237.5,131.6,239,141z M226,117c-1.3-6.3,7.1-2.9,8-7C230,110.4,220.3,113.1,226,117z M261,143c-4.4-0.8-6,1.3-10,1
		c-0.4-5.3-2.3-14.1-2-15c-3.7,10.3,2.1,34.7,2,44c3.5,2.5,8.9,0,13,0c-0.2-22.1,1-45.6-4-63C261.6,119.8,260.9,131.8,261,143z
		 M216,140c-2.8,0.9-6.1,1.2-8,3c2.4,0.6,7.3-1.3,8,1c-1.8,2.3-9.1,2.9-12,1c0.8-4.8-1.6-6.4-1-11c-0.9,7-4.9,37.3,4,46
		c-2.3,0.3-0.6,4.4,0,5c5.5-0.5,12.7,0.7,15-3c-1-3.3-10.8,2.2-9-4c0.7-2.3,5.6-0.4,8-1c-0.6-21.7-2.8-41.9-2-65
		C207.8,112.4,214.1,134.2,216,140z M203,118c0.3,6.4,1.1,12.3,3,17c0.8-6.4-1.5-9.8-1-16c1.3-1.4,4.9-0.4,5-3
		C206.9,115.9,205.3,117.2,203,118z M58,121c-1.4,17.4,1.9,35.8,1,51c-0.3,5.4-4.4,13.7,2,16c1.9-2.5,0.8-7.8,3-10
		c2.7,0,5.9,0.6,6-2c-3.2-1.4-6,2.5-7,0c-0.8-3.8-1.3-8-1-13c2.7-0.7,6.2-0.4,8-2c-1-2.3-7.1,0.5-8-2c0-7.7,0-15.3,0-23
		c1.3-1.7,6,0,6-3c-3.1-0.7-3.6,1-6,1c-3-3.4,1.7-14.4-3-16C58.9,119.2,59.2,120.8,58,121z M48,125c0-3,0.1-6.1-3-6
		C45,122,44.5,125.6,48,125z M250,121c2.2,2.1,4.8-1.1,9,0C259.2,117,250.4,119,250,121z M196,179c2.5,0.8,3.2,3.5,5,5
		c-1.7-20-1.5-41.9-4-61c-2.3,5.2-1.2-2.1-3-3C194.8,143.9,196,155.5,196,179z M226,124c3.2-0.4,8.6,1.3,9-2
		C231.2,121.8,227.8,122.1,226,124z M25,128c5.2-1.4,12.8-0.5,16-4C36,125.6,28.5,124.8,25,128z M26,133c3.9,1.5,10.9-1.5,15-3
		C34.8,129.7,29.6,130.6,26,133z M47,189c2.3,0,4.7,0,7,0c0.5-6.2-7,0.2-7-4c-1.8-6.4,5.8-3.5,7-7c-2.1-0.6-6.6,1.2-7-1
		c1-4,1.2-8.8,1-14c2.5,0.1,4.9,0.2,5-2c-7.6,6-5.6-24.2-5-25c2.2-3.2,5.7,4.5,4-1c0-0.1-7.3-3.6-6-5C44.2,148.3,44.5,174.8,47,189z
		 M149,154c-0.6-8.1-0.4-16.9-2-24C145.9,136,145.8,149.1,149,154z M35,154c0.1-3.1-0.5-5.5-2-7c-0.4,3.4,0.4,5.6,1,8
		c-3.3-0.9-4.3,5.6-6,3c-0.6-2.1,1.6-6.9-2-6c0,10,0.9,19.1,2,28c3.7,0.7,7.6,1.7,11,0c0.7-3-2.1-9.4,3-8c-1.6-2.4-4.3-3.7-3-9
		c1,0,2,0,3,0c-1.1-4.1-0.2-4.9-1-10c-6.4,3-2.5-9.4-5-7C35.4,148.4,37.3,153.3,35,154z M149,174c-0.4-3,1-12.9-1-11
		C148.4,166,147.1,175.9,149,174z M226,176c5.3,2.9,11.2-1.1,18,0C242.2,172.5,227.9,173,226,176z M251,179c1.2,3.8,13.8,2.8,14-1
		C262.8,176.8,251.7,175.3,251,179z M227,182c4.1,1.4,15.6,1.7,17-3C238,179.6,229,177.3,227,182z M31,185c2.5,0.8,8.6-1.9,8,2
		c-1.8,2.5-9.3-0.6-10,3c3.2,2.2,9.4,0.5,13,0c0-2.3,0-4.7,0-7C37.7,183,33,182.6,31,185z M159,196c12.3,0.3,28.2-4.4,38-10
		C183.5,188.4,170.6,191.5,159,196z M10,202c4.4-3.6,11.3-4.7,11-13c-2.1-1.9-7.3-0.7-11-1C10,192.7,10,197.3,10,202z M165,202
		c3.7,0.6,4.9,3.8,9,4c7-6,17.5-8.5,25-14C186.6,194.2,178,200.3,165,202z M38,193c-3.4,0.6-9.3-1.3-11,1
		C31.6,194.4,34.5,195.3,38,193z M37,196c-3.4,0.6-9.3-1.3-11,1C29.4,196.4,35.3,198.3,37,196z M167,207c-0.2-1.9-5.8-3.4-7-1
		C162.6,205.5,165.7,209.5,167,207z M11,274c3.2-10.5,10.3-17,12-29c-4.3,0-8.7,0-13,0C10.7,254.3,8.7,266.3,11,274z M45,270
		c0.6-9.3-1.7-15.6-1-25c-3.3,0-6.7,0-10,0C36.9,254.2,40.4,262.6,45,270z M60,264c4.7,2.6,6.4,8.2,12,10c1.3-5.6,1.8-15.5,0-21
		c-4.6-0.1-7.4-2-6-8c-1.8,0.6-5.9-1.2-6,1C66.2,249.9,63.5,259.4,60,264z M87,252c-2.8-0.8-2.6,1.4-5,1c0,7,0,14,0,21
		c8.4,1.1,9.4-5.2,11-11c-3-5.2-7.6-12.5-2-18c-1.3,0-2.7,0-4,0C87,247.3,87,249.7,87,252z M99,252c4.3,5.5,5.8,16.9,0,22
		c10.3-0.7,23.3,1.3,32-1c-6-1.8-9.6-6.4-10-12c-0.7-8.4,7.4-12.8,6-16C116,245.6,100.7,241.9,99,252z M141,251
		c-4.1,2.2-7.9,4.8-9,10c2.5,4.5,10.8,3.2,8,13c2.4-0.6,7.3,1.3,8-1c-8.7-4.2-8.7-21.5-2-28c-2.7,0.6-7.9-1.3-9,1
		C138.8,247.3,141,248.1,141,251z M163,256c-0.4-3.9-0.8-7.9-2-11c-1.2,0.2-2.8-0.2-3,1C161,248,160.7,253.4,163,256z M174,266
		c5.6-2.2,3.8-16.6,4-21c-2.3,0-4.7,0-7,0C171.3,252.7,173.5,258.5,174,266z M181,274c2.7,0,5.3,0,8,0c-0.7-9.3,1.3-21.3-1-29
		C186,255,185.8,266.8,181,274z M206,255c0-3.3,0-6.7,0-10c-4.3,0-8.7,0-13,0C196.2,249.5,200.4,253,206,255z M216,274
		c3.7-0.6,10,1.3,12-1c-12.6-1.5-12.5-23.3-3-28c-3,0-6,0-9,0C216,254.7,216,264.3,216,274z M237,251c-4.2-0.5-6.8,0.6-9,2
		c0,2.3,0,4.7,0,7c2.2,2.5,5.7,3.6,9,5c0.9,2.8-2.1,9.4,2,9c5.1-3.2-0.4-17.1,3-22c2.4,0.6,7.3-1.3,8,1c1,7-0.8,16.8,3,21
		c0.7,0,1.3,0,2,0c0.8-7.1,1.3-22.7-2-29c-5-2-1.5,4.5-4,5c-2.7,0-5.3,0-8,0c-0.4-1.9,1.4-6-2-5c-0.7,0-1.3,0-2,0
		C234.9,247.1,237.5,247.9,237,251z M264,266c8.9-3.6,1.3,9.3,8,8c2.3-7.7,0.3-19.7,1-29c-3.3,0-6.7,0-10,0
		C263.2,252.2,262.4,260.3,264,266z M54,258c1.9-2.5,2.8-5.9-1-7C53.6,253.1,51.8,257.6,54,258z M151,264c5.8,0.6,5.2-11.3,0-11
		C148.5,255.6,148.5,261.4,151,264z M26,263c2.1-0.6,6.6,1.2,7-1c-2.7-1-1.2-6.1-5-6C28.7,259.7,25.9,259.8,26,263z M154,274
		c4.7-0.6,12,1.3,15-1c-3.8-2.2-4.2-13.1-6-14C164,267.9,157.8,269.8,154,274z M198,274c4.7-0.6,12,1.3,15-1c-5.5-2.5-9.1-6.9-15-9
		C198,267.3,198,270.7,198,274z M53,274c1.5-0.5,5.2,1.2,5-1c-3.1,0.5-2.6-2.7-5-3C53,271.3,53,272.7,53,274z M19,272
		c2.2,3.8,15.2,2.1,19,1C34.6,269.3,26.3,273.4,19,272z"/>
	<path d="M216,148c-0.4,9.4,0.4,17.6,1,26c-4,0-8,0-12,0c0-4.3,0-8.7,0-13c1.6-0.3,1.7,0.9,3,1c-2.5-2.5-3.8-6.2-3-12
		C209.4,150,211.4,147.7,216,148z"/>
</g>
</svg>
